<?xml version="1.0" standalone="no"?>
<!DOCTYPE svg PUBLIC "-//W3C//DTD SVG 20010904//EN"
 "http://www.w3.org/TR/2001/REC-SVG-20010904/DTD/svg10.dtd">
<svg version="1.0" xmlns="http://www.w3.org/2000/svg"
 width="500.000000pt" height="500.000000pt" viewBox="0 0 500.000000 500.000000"
 preserveAspectRatio="xMidYMid meet">
<metadata>
Created by potrace 1.14, written by Peter Selinger 2001-2017
</metadata>
<g transform="translate(0.000000,500.000000) scale(0.100000,-0.100000)"
fill="#000000" stroke="none">
<path d="M0 2500 l0 -2500 2500 0 2500 0 0 2500 0 2500 -2500 0 -2500 0 0
-2500z m4007 1385 c50 -21 72 -42 94 -90 18 -38 19 -90 19 -1005 0 -917 -1
-967 -19 -1005 -56 -123 -209 -144 -298 -42 -18 20 -35 52 -39 72 l-6 35 -37
-30 c-96 -80 -215 -141 -319 -161 -93 -18 -241 -7 -333 24 -195 66 -357 217
-443 410 -91 206 -101 483 -26 707 80 242 270 426 505 491 67 18 97 21 204 16
164 -6 274 -44 399 -138 l52 -40 0 316 c0 351 2 361 64 411 57 46 119 56 183
29z m-2144 -603 c208 -75 374 -222 466 -415 55 -114 74 -194 75 -309 1 -110
-11 -136 -80 -175 -39 -23 -39 -23 -563 -23 l-523 0 6 -27 c16 -70 77 -172
135 -225 103 -96 217 -134 371 -125 103 6 176 27 255 74 128 76 213 69 279
-20 32 -43 28 -116 -10 -169 -52 -74 -192 -152 -349 -194 -83 -22 -280 -30
-369 -15 -379 65 -624 320 -668 698 -19 170 14 387 80 518 105 210 282 355
503 415 100 27 305 23 392 -8z"/>
<path d="M3215 2967 c-152 -51 -257 -167 -300 -334 -20 -75 -19 -229 1 -306
66 -254 288 -394 528 -332 139 36 249 147 302 305 29 85 27 282 -4 373 -46
131 -125 222 -239 274 -46 21 -75 27 -152 30 -62 2 -110 -2 -136 -10z"/>
<path d="M1510 2965 c-130 -37 -220 -130 -258 -267 l-10 -38 394 0 395 0 -7
38 c-4 20 -13 52 -20 70 -22 53 -108 136 -180 173 -60 30 -76 34 -163 36 -63
2 -115 -2 -151 -12z"/>
</g>
</svg>
